<?xml version="1.0" standalone="no"?>
<!DOCTYPE svg PUBLIC "-//W3C//DTD SVG 20010904//EN"
 "http://www.w3.org/TR/2001/REC-SVG-20010904/DTD/svg10.dtd">
<svg version="1.0" xmlns="http://www.w3.org/2000/svg"
 width="800.000000pt" height="800.000000pt" viewBox="0 0 800.000000 800.000000"
 preserveAspectRatio="xMidYMid meet">

<g transform="translate(0.000000,800.000000) scale(0.100000,-0.100000)"
fill="#000000" stroke="none">
<path d="M3815 7990 c-544 -26 -1052 -154 -1540 -389 -436 -211 -800 -473
-1135 -817 -475 -489 -812 -1076 -990 -1722 -226 -821 -182 -1717 122 -2497
300 -769 824 -1425 1501 -1878 725 -486 1535 -713 2409 -676 943 40 1836 415
2533 1062 568 527 971 1206 1159 1955 199 787 146 1658 -146 2407 -300 770
-824 1425 -1504 1880 -295 198 -567 334 -926 464 -294 106 -736 193 -1052 206
-72 3 -162 7 -201 9 -38 2 -142 0 -230 -4z m486 -890 c1328 -134 2425 -1093
2729 -2385 59 -249 80 -441 80 -717 0 -483 -98 -915 -304 -1343 -452 -937
-1317 -1576 -2351 -1736 -196 -30 -582 -37 -784 -15 -364 41 -693 134 -1016
290 -986 475 -1645 1417 -1755 2505 -13 133 -13 469 0 602 149 1476 1313 2646
2785 2798 118 12 497 13 616 1z"/>
<path d="M3735 6889 c-993 -93 -1865 -685 -2320 -1574 -177 -346 -277 -709
-310 -1132 l-7 -83 95 0 94 0 7 31 c3 17 6 49 6 70 0 21 7 91 15 156 149 1134
1022 2069 2146 2297 69 14 177 30 240 36 63 6 133 13 157 16 l42 5 0 95 0 94
-37 -1 c-21 -1 -78 -5 -128 -10z"/>
<path d="M4100 6807 l0 -94 31 -7 c17 -3 49 -6 70 -6 21 0 91 -7 156 -15 1045
-138 1929 -891 2237 -1908 45 -148 83 -335 96 -477 6 -63 13 -134 16 -157 l5
-43 96 0 95 0 -7 83 c-26 332 -85 597 -197 882 -292 741 -892 1341 -1633 1633
-285 112 -550 171 -882 197 l-83 7 0 -95z"/>
<path d="M3765 6493 c-125 -14 -206 -28 -305 -50 -1048 -230 -1840 -1120
-1951 -2191 -17 -165 -7 -505 20 -655 98 -553 339 -1012 732 -1393 374 -361
809 -582 1336 -675 150 -27 490 -37 655 -20 587 61 1129 325 1544 752 361 374
582 809 675 1336 27 150 37 490 20 655 -31 297 -113 580 -247 854 -306 623
-881 1105 -1550 1299 -117 34 -306 71 -426 84 -89 10 -432 13 -503 4z m-1312
-2480 l-4 -998 -161 -3 -161 -3 7 175 c9 218 9 930 0 1439 l-7 387 165 0 165
0 -4 -997z m1107 991 c0 -3 -171 -214 -379 -469 l-379 -463 115 -149 c204
-262 356 -443 586 -700 137 -154 142 -169 62 -190 -98 -25 -242 -46 -269 -39
-19 5 -75 67 -204 229 -263 330 -632 824 -632 845 0 4 140 176 311 382 170
206 338 416 372 467 l62 92 178 1 c97 0 177 -3 177 -6z m1694 -71 c92 -283
616 -1913 616 -1917 0 -4 -75 -5 -167 -4 l-168 3 -27 125 c-15 69 -45 179 -66
245 -33 103 -41 120 -62 126 -31 9 -692 11 -742 3 l-37 -6 -45 -132 c-25 -72
-55 -176 -67 -231 -11 -55 -23 -108 -25 -117 -5 -16 -22 -18 -165 -18 -114 0
-159 3 -159 12 0 6 159 456 353 1000 l352 988 192 0 191 0 26 -77z"/>
<path d="M5011 4668 c-63 -171 -311 -881 -308 -884 2 -3 141 -3 309 -2 l305 3
-140 453 c-78 248 -145 452 -149 452 -5 0 -12 -10 -17 -22z"/>
<path d="M1105 3818 c26 -333 85 -598 197 -883 292 -741 892 -1341 1633 -1633
285 -112 550 -171 883 -197 l82 -7 0 95 0 96 -42 5 c-24 3 -94 10 -157 16 -63
6 -170 22 -238 36 -812 165 -1511 700 -1884 1444 -146 292 -241 612 -269 910
-6 63 -13 134 -16 158 l-5 42 -96 0 -95 0 7 -82z"/>
<path d="M6706 3858 c-3 -24 -10 -95 -16 -158 -44 -461 -229 -925 -535 -1338
-104 -140 -377 -414 -518 -517 -412 -306 -876 -491 -1337 -535 -63 -6 -134
-13 -157 -16 l-43 -5 0 -96 0 -95 83 7 c332 26 597 85 882 197 741 292 1341
892 1633 1633 112 285 171 550 197 883 l7 82 -95 0 -96 0 -5 -42z"/>
</g>
</svg>
